<svg width="311" height="920" viewBox="0 0 311 920" fill="none" xmlns="http://www.w3.org/2000/svg">
<path d="M77 914.655L77 916.755L79.0995 916.755L79.0995 914.655L77 914.655ZM51.3862 883.835L49.4594 884.669L51.6546 889.741L53.3807 884.491L51.3862 883.835ZM25.6335 914.655L23.534 914.655L23.534 916.755L25.6335 916.755L25.6335 914.655ZM46.666 903.41L46.666 905.51L48.7656 905.51L48.7656 903.41L46.666 903.41ZM35.4903 903.41L33.3908 903.41L33.3908 905.51L35.4903 905.51L35.4903 903.41ZM67.1432 903.41L67.1432 905.51L69.2427 905.51L69.2427 903.41L67.1432 903.41ZM56.1063 903.41L54.0068 903.41L54.0068 905.51L56.1063 905.51L56.1063 903.41ZM79.0995 914.655L79.0995 893.276L74.9005 893.276L74.9005 914.655L79.0995 914.655ZM79.0995 893.276C79.0995 887.44 77.7723 882.592 74.9497 879.168C72.0749 875.681 67.8895 873.961 62.8395 873.961L62.8395 878.16C66.8828 878.16 69.7776 879.495 71.7097 881.839C73.6941 884.246 74.9005 888.005 74.9005 893.276L79.0995 893.276ZM62.8395 873.961C59.6002 873.961 56.7172 874.715 54.3702 876.312C52.0108 877.917 50.3491 880.267 49.3917 883.179L53.3807 884.491C54.0892 882.336 55.2387 880.799 56.7318 879.784C58.2373 878.76 60.2481 878.16 62.8395 878.16L62.8395 873.961ZM53.313 883.001C50.9338 877.505 46.0963 874.586 39.8634 874.586L39.8634 878.785C44.598 878.785 47.8125 880.864 49.4594 884.669L53.313 883.001ZM39.8634 874.586C34.9266 874.586 30.7562 876.355 27.8509 879.733C24.979 883.072 23.534 887.757 23.534 893.276L27.7331 893.276C27.7331 888.451 28.9952 884.842 31.0343 882.471C33.0401 880.139 35.9847 878.785 39.8634 878.785L39.8634 874.586ZM23.534 893.276L23.534 914.655L27.7331 914.655L27.7331 893.276L23.534 893.276ZM25.6335 916.755L77 916.755L77 912.556L25.6335 912.556L25.6335 916.755ZM37.5899 894.456C37.5899 892.689 37.998 891.705 38.4579 891.18C38.8747 890.704 39.5958 890.308 40.9741 890.308L40.9741 886.109C38.7428 886.109 36.722 886.789 35.2994 888.413C33.9198 889.987 33.3908 892.126 33.3908 894.456L37.5899 894.456ZM40.9741 890.308C42.3827 890.308 43.1779 890.72 43.6467 891.235C44.1442 891.782 44.5665 892.767 44.5665 894.456L48.7656 894.456C48.7656 892.118 48.1813 889.98 46.7526 888.409C45.2951 886.807 43.2444 886.109 40.9741 886.109L40.9741 890.308ZM44.5665 894.456L44.5665 903.41L48.7656 903.41L48.7656 894.456L44.5665 894.456ZM46.666 901.31L35.4903 901.31L35.4903 905.51L46.666 905.51L46.666 901.31ZM37.5899 903.41L37.5899 894.456L33.3908 894.456L33.3908 903.41L37.5899 903.41ZM58.2059 893.9C58.2059 892.136 58.6136 891.114 59.0805 890.562C59.4983 890.068 60.1873 889.683 61.4512 889.683L61.4512 885.484C59.2444 885.484 57.261 886.21 55.874 887.851C54.5361 889.433 54.0068 891.57 54.0068 893.9L58.2059 893.9ZM61.4512 889.683C62.9673 889.683 63.7345 890.099 64.1632 890.579C64.6317 891.103 65.0437 892.09 65.0437 893.9L69.2427 893.9C69.2427 891.545 68.7176 889.374 67.2945 887.781C65.8317 886.144 63.7529 885.484 61.4512 885.484L61.4512 889.683ZM65.0437 893.9L65.0437 903.41L69.2427 903.41L69.2427 893.9L65.0437 893.9ZM67.1432 901.31L56.1063 901.31L56.1063 905.51L67.1432 905.51L67.1432 901.31ZM58.2059 903.41L58.2059 893.9L54.0068 893.9L54.0068 903.41L58.2059 903.41ZM77 835.867L79.0995 835.867L79.0995 833.768L77 833.768L77 835.867ZM66.5879 835.867L66.5879 833.768L64.4883 833.768L64.4883 835.867L66.5879 835.867ZM66.5879 857.247L66.5879 859.346L68.6874 859.346L68.6874 857.247L66.5879 857.247ZM55.9675 857.247L53.868 857.247L53.868 859.346L55.9675 859.346L55.9675 857.247ZM55.9675 838.297L58.067 838.297L58.067 836.197L55.9675 836.197L55.9675 838.297ZM46.1107 838.297L46.1107 836.197L44.0112 836.197L44.0112 838.297L46.1107 838.297ZM46.1107 857.247L46.1107 859.346L48.2102 859.346L48.2102 857.247L46.1107 857.247ZM36.0456 857.247L33.9461 857.247L33.9461 859.346L36.0456 859.346L36.0456 857.247ZM36.0456 835.867L38.1452 835.867L38.1452 833.768L36.0456 833.768L36.0456 835.867ZM25.6335 835.867L25.6335 833.768L23.534 833.768L23.534 835.867L25.6335 835.867ZM25.6335 868.492L23.534 868.492L23.534 870.592L25.6335 870.592L25.6335 868.492ZM77 868.492L77 870.592L79.0995 870.592L79.0995 868.492L77 868.492ZM77 833.768L66.5879 833.768L66.5879 837.967L77 837.967L77 833.768ZM64.4883 835.867L64.4883 857.247L68.6874 857.247L68.6874 835.867L64.4883 835.867ZM66.5879 855.147L55.9675 855.147L55.9675 859.346L66.5879 859.346L66.5879 855.147ZM58.067 857.247L58.067 838.297L53.868 838.297L53.868 857.247L58.067 857.247ZM55.9675 836.197L46.1107 836.197L46.1107 840.396L55.9675 840.396L55.9675 836.197ZM44.0112 838.297L44.0112 857.247L48.2102 857.247L48.2102 838.297L44.0112 838.297ZM46.1107 855.147L36.0456 855.147L36.0456 859.346L46.1107 859.346L46.1107 855.147ZM38.1452 857.247L38.1452 835.867L33.9461 835.867L33.9461 857.247L38.1452 857.247ZM36.0456 833.768L25.6335 833.768L25.6335 837.967L36.0456 837.967L36.0456 833.768ZM23.534 835.867L23.534 868.492L27.7331 868.492L27.7331 835.867L23.534 835.867ZM25.6335 870.592L77 870.592L77 866.392L25.6335 866.392L25.6335 870.592ZM79.0995 868.492L79.0995 835.867L74.9005 835.867L74.9005 868.492L79.0995 868.492ZM77 815.422L79.0995 815.422L79.0995 813.323L77 813.323L77 815.422ZM56.3146 815.422L54.215 815.422L54.215 817.522L56.3146 817.522L56.3146 815.422ZM56.3146 795.57L56.3146 793.47L54.215 793.47L54.215 795.57L56.3146 795.57ZM77 795.57L77 797.669L79.0995 797.669L79.0995 795.57L77 795.57ZM77 784.325L79.0995 784.325L79.0995 782.225L77 782.225L77 784.325ZM25.6335 784.325L25.6335 782.225L23.534 782.225L23.534 784.325L25.6335 784.325ZM25.6335 795.57L23.534 795.57L23.534 797.669L25.6335 797.669L25.6335 795.57ZM45.9025 795.57L48.002 795.57L48.002 793.47L45.9025 793.47L45.9025 795.57ZM45.9025 815.422L45.9025 817.522L48.002 817.522L48.002 815.422L45.9025 815.422ZM25.6335 815.422L25.6335 813.323L23.534 813.323L23.534 815.422L25.6335 815.422ZM25.6335 826.667L23.534 826.667L23.534 828.767L25.6335 828.767L25.6335 826.667ZM77 826.667L77 828.767L79.0995 828.767L79.0995 826.667L77 826.667ZM77 813.323L56.3146 813.323L56.3146 817.522L77 817.522L77 813.323ZM58.4141 815.422L58.4141 795.57L54.215 795.57L54.215 815.422L58.4141 815.422ZM56.3146 797.669L77 797.669L77 793.47L56.3146 793.47L56.3146 797.669ZM79.0995 795.57L79.0995 784.325L74.9005 784.325L74.9005 795.57L79.0995 795.57ZM77 782.225L25.6335 782.225L25.6335 786.424L77 786.424L77 782.225ZM23.534 784.325L23.534 795.57L27.7331 795.57L27.7331 784.325L23.534 784.325ZM25.6335 797.669L45.9025 797.669L45.9025 793.47L25.6335 793.47L25.6335 797.669ZM43.8029 795.57L43.8029 815.422L48.002 815.422L48.002 795.57L43.8029 795.57ZM45.9025 813.323L25.6335 813.323L25.6335 817.522L45.9025 817.522L45.9025 813.323ZM23.534 815.422L23.534 826.667L27.7331 826.667L27.7331 815.422L23.534 815.422ZM25.6335 828.767L77 828.767L77 824.568L25.6335 824.568L25.6335 828.767ZM79.0995 826.667L79.0995 815.422L74.9005 815.422L74.9005 826.667L79.0995 826.667ZM25.6335 762.413L25.6335 760.313L23.534 760.313L23.534 762.413L25.6335 762.413ZM25.6335 773.658L23.534 773.658L23.534 775.757L25.6335 775.757L25.6335 773.658ZM77 773.658L77 775.757L79.0995 775.757L79.0995 773.658L77 773.658ZM77 762.413L79.0995 762.413L79.0995 760.313L77 760.313L77 762.413ZM23.534 762.413L23.534 773.658L27.7331 773.658L27.7331 762.413L23.534 762.413ZM25.6335 775.757L77 775.757L77 771.558L25.6335 771.558L25.6335 775.757ZM79.0995 773.658L79.0995 762.413L74.9005 762.413L74.9005 773.658L79.0995 773.658ZM77 760.313L25.6335 760.313L25.6335 764.512L77 764.512L77 760.313ZM77 740.588L79.0995 740.588L79.0995 738.489L77 738.489L77 740.588ZM44.3753 740.588L43.2142 738.839L37.4164 742.688L44.3753 742.688L44.3753 740.588ZM77 718.931L78.1612 720.68L79.0995 720.057L79.0995 718.931L77 718.931ZM77 707.825L79.0995 707.825L79.0995 705.725L77 705.725L77 707.825ZM25.6335 707.825L25.6335 705.725L23.534 705.725L23.534 707.825L25.6335 707.825ZM25.6335 718.931L23.534 718.931L23.534 721.031L25.6335 721.031L25.6335 718.931ZM58.3276 718.931L59.487 720.681L65.2989 716.832L58.3276 716.832L58.3276 718.931ZM25.6335 740.588L24.4741 738.838L23.534 739.461L23.534 740.588L25.6335 740.588ZM25.6335 751.695L23.534 751.695L23.534 753.794L25.6335 753.794L25.6335 751.695ZM77 751.695L77 753.794L79.0995 753.794L79.0995 751.695L77 751.695ZM77 738.489L44.3753 738.489L44.3753 742.688L77 742.688L77 738.489ZM45.5365 742.337L78.1612 720.68L75.8388 717.182L43.2142 738.839L45.5365 742.337ZM79.0995 718.931L79.0995 707.825L74.9005 707.825L74.9005 718.931L79.0995 718.931ZM77 705.725L25.6335 705.725L25.6335 709.924L77 709.924L77 705.725ZM23.534 707.825L23.534 718.931L27.7331 718.931L27.7331 707.825L23.534 707.825ZM25.6335 721.031L58.3276 721.031L58.3276 716.832L25.6335 716.832L25.6335 721.031ZM57.1681 717.181L24.4741 738.838L26.793 742.339L59.487 720.681L57.1681 717.181ZM23.534 740.588L23.534 751.695L27.7331 751.695L27.7331 740.588L23.534 740.588ZM25.6335 753.794L77 753.794L77 749.595L25.6335 749.595L25.6335 753.794ZM79.0995 751.695L79.0995 740.588L74.9005 740.588L74.9005 751.695L79.0995 751.695ZM25.6335 697.126L23.534 697.126L23.534 699.225L25.6335 699.225L25.6335 697.126ZM77 697.126L77 699.225L79.0995 699.225L79.0995 697.126L77 697.126ZM66.5879 685.881L66.5879 687.98L68.6874 687.98L68.6874 685.881L66.5879 685.881ZM36.0456 685.881L33.9461 685.881L33.9461 687.98L36.0456 687.98L36.0456 685.881ZM79.0995 676.996C79.0995 669.15 76.2635 662.38 71.313 657.572C66.3673 652.769 59.437 650.046 51.4556 650.046L51.4556 654.245C58.4676 654.245 64.3095 656.624 68.3876 660.584C72.461 664.54 74.9005 670.195 74.9005 676.996L79.0995 676.996ZM51.4556 650.046C43.3284 650.046 36.322 652.843 31.3404 657.777C26.3576 662.713 23.534 669.654 23.534 677.69L27.7331 677.69C27.7331 670.663 30.185 664.832 34.2953 660.761C38.407 656.688 44.3116 654.245 51.4556 654.245L51.4556 650.046ZM23.534 677.69L23.534 697.126L27.7331 697.126L27.7331 677.69L23.534 677.69ZM25.6335 699.225L77 699.225L77 695.026L25.6335 695.026L25.6335 699.225ZM79.0995 697.126L79.0995 676.996L74.9005 676.996L74.9005 697.126L79.0995 697.126ZM38.1452 678.8C38.1452 674.584 39.4247 671.486 41.5608 669.434C43.7081 667.371 46.9833 666.115 51.4556 666.115L51.4556 661.916C46.2099 661.916 41.7801 663.401 38.652 666.406C35.5126 669.421 33.9461 673.715 33.9461 678.8L38.1452 678.8ZM51.4556 666.115C55.8404 666.115 59.0557 667.312 61.1583 669.267C63.2401 671.202 64.4883 674.119 64.4883 678.106L68.6874 678.106C68.6874 673.208 67.1244 669.08 64.0175 666.191C60.9313 663.322 56.5805 661.916 51.4556 661.916L51.4556 666.115ZM64.4883 678.106L64.4883 685.881L68.6874 685.881L68.6874 678.106L64.4883 678.106ZM66.5879 683.781L36.0456 683.781L36.0456 687.98L66.5879 687.98L66.5879 683.781ZM38.1452 685.881L38.1452 678.8L33.9461 678.8L33.9461 685.881L38.1452 685.881ZM36.0456 629.906L36.0456 632.005L38.1452 632.005L38.1452 629.906L36.0456 629.906ZM36.0456 615.329L36.0456 613.229L33.9461 613.229L33.9461 615.329L36.0456 615.329ZM77 615.329L77 617.428L79.0995 617.428L79.0995 615.329L77 615.329ZM77 604.084L79.0995 604.084L79.0995 601.984L77 601.984L77 604.084ZM36.0456 604.084L33.9461 604.084L33.9461 606.183L36.0456 606.183L36.0456 604.084ZM36.0456 589.507L38.1452 589.507L38.1452 587.407L36.0456 587.407L36.0456 589.507ZM25.6335 589.507L25.6335 587.407L23.534 587.407L23.534 589.507L25.6335 589.507ZM25.6335 629.906L23.534 629.906L23.534 632.005L25.6335 632.005L25.6335 629.906ZM38.1452 629.906L38.1452 615.329L33.9461 615.329L33.9461 629.906L38.1452 629.906ZM36.0456 617.428L77 617.428L77 613.229L36.0456 613.229L36.0456 617.428ZM79.0995 615.329L79.0995 604.084L74.9005 604.084L74.9005 615.329L79.0995 615.329ZM77 601.984L36.0456 601.984L36.0456 606.183L77 606.183L77 601.984ZM38.1452 604.084L38.1452 589.507L33.9461 589.507L33.9461 604.084L38.1452 604.084ZM36.0456 587.407L25.6335 587.407L25.6335 591.606L36.0456 591.606L36.0456 587.407ZM23.534 589.507L23.534 629.906L27.7331 629.906L27.7331 589.507L23.534 589.507ZM25.6335 632.005L36.0456 632.005L36.0456 627.806L25.6335 627.806L25.6335 632.005ZM77 571.524L79.0995 571.524L79.0995 569.424L77 569.424L77 571.524ZM56.3146 571.524L54.215 571.524L54.215 573.623L56.3146 573.623L56.3146 571.524ZM56.3146 551.671L56.3146 549.572L54.215 549.572L54.215 551.671L56.3146 551.671ZM77 551.671L77 553.771L79.0995 553.771L79.0995 551.671L77 551.671ZM77 540.426L79.0995 540.426L79.0995 538.327L77 538.327L77 540.426ZM25.6335 540.426L25.6335 538.327L23.534 538.327L23.534 540.426L25.6335 540.426ZM25.6335 551.671L23.534 551.671L23.534 553.771L25.6335 553.771L25.6335 551.671ZM45.9024 551.671L48.002 551.671L48.002 549.572L45.9024 549.572L45.9024 551.671ZM45.9024 571.524L45.9024 573.623L48.002 573.623L48.002 571.524L45.9024 571.524ZM25.6335 571.524L25.6335 569.424L23.534 569.424L23.534 571.524L25.6335 571.524ZM25.6335 582.769L23.534 582.769L23.534 584.868L25.6335 584.868L25.6335 582.769ZM77 582.769L77 584.868L79.0995 584.868L79.0995 582.769L77 582.769ZM77 569.424L56.3146 569.424L56.3146 573.623L77 573.623L77 569.424ZM58.4141 571.524L58.4141 551.671L54.215 551.671L54.215 571.524L58.4141 571.524ZM56.3146 553.771L77 553.771L77 549.572L56.3146 549.572L56.3146 553.771ZM79.0995 551.671L79.0995 540.426L74.9005 540.426L74.9005 551.671L79.0995 551.671ZM77 538.327L25.6335 538.327L25.6335 542.526L77 542.526L77 538.327ZM23.534 540.426L23.534 551.671L27.7331 551.671L27.733 540.426L23.534 540.426ZM25.6335 553.771L45.9024 553.771L45.9024 549.572L25.6335 549.572L25.6335 553.771ZM43.8029 551.671L43.8029 571.524L48.002 571.524L48.002 551.671L43.8029 551.671ZM45.9024 569.424L25.6335 569.424L25.6335 573.623L45.9024 573.623L45.9024 569.424ZM23.534 571.524L23.534 582.769L27.7331 582.769L27.7331 571.524L23.534 571.524ZM25.6335 584.868L77 584.868L77 580.669L25.6335 580.669L25.6335 584.868ZM79.0995 582.769L79.0995 571.524L74.9005 571.524L74.9005 582.769L79.0995 582.769ZM77 497.134L79.0995 497.134L79.0995 495.035L77 495.035L77 497.134ZM66.5879 497.134L66.5879 495.035L64.4883 495.035L64.4883 497.134L66.5879 497.134ZM66.5879 518.514L66.5879 520.614L68.6874 520.614L68.6874 518.514L66.5879 518.514ZM55.9675 518.514L53.868 518.514L53.868 520.614L55.9675 520.614L55.9675 518.514ZM55.9675 499.564L58.067 499.564L58.067 497.464L55.9675 497.464L55.9675 499.564ZM46.1107 499.564L46.1107 497.464L44.0112 497.464L44.0112 499.564L46.1107 499.564ZM46.1107 518.514L46.1107 520.614L48.2102 520.614L48.2102 518.514L46.1107 518.514ZM36.0456 518.514L33.9461 518.514L33.9461 520.614L36.0456 520.614L36.0456 518.514ZM36.0456 497.134L38.1452 497.134L38.1452 495.035L36.0456 495.035L36.0456 497.134ZM25.6335 497.134L25.6335 495.035L23.534 495.035L23.534 497.134L25.6335 497.134ZM25.6335 529.759L23.534 529.759L23.534 531.859L25.6335 531.859L25.6335 529.759ZM77 529.759L77 531.859L79.0995 531.859L79.0995 529.759L77 529.759ZM77 495.035L66.5879 495.035L66.5879 499.234L77 499.234L77 495.035ZM64.4883 497.134L64.4883 518.514L68.6874 518.514L68.6874 497.134L64.4883 497.134ZM66.5879 516.414L55.9675 516.414L55.9675 520.614L66.5879 520.614L66.5879 516.414ZM58.067 518.514L58.067 499.564L53.868 499.564L53.868 518.514L58.067 518.514ZM55.9675 497.464L46.1107 497.464L46.1107 501.663L55.9675 501.663L55.9675 497.464ZM44.0112 499.564L44.0112 518.514L48.2102 518.514L48.2102 499.564L44.0112 499.564ZM46.1107 516.414L36.0456 516.414L36.0456 520.614L46.1107 520.614L46.1107 516.414ZM38.1452 518.514L38.1452 497.134L33.9461 497.134L33.9461 518.514L38.1452 518.514ZM36.0456 495.035L25.6335 495.035L25.6335 499.234L36.0456 499.234L36.0456 495.035ZM23.534 497.134L23.534 529.759L27.733 529.759L27.733 497.134L23.534 497.134ZM25.6335 531.859L77 531.859L77 527.66L25.6335 527.66L25.6335 531.859ZM79.0995 529.759L79.0995 497.134L74.9004 497.134L74.9004 529.759L79.0995 529.759ZM56.0369 458.527L58.0939 458.948L58.0943 458.946L56.0369 458.527ZM57.6334 450.683L55.5763 450.264L55.5761 450.265L57.6334 450.683ZM62.0759 461.998L62.0759 459.898L59.9764 459.898L59.9764 461.998L62.0759 461.998ZM62.0759 473.174L59.9764 473.174L59.9764 475.273L62.0759 475.273L62.0759 473.174ZM47.1519 448.254L49.2078 448.68L49.2088 448.675L47.1519 448.254ZM45.5554 455.959L47.6095 456.393L47.6112 456.385L45.5554 455.959ZM40.4881 446.727L40.4881 448.826L42.5877 448.826L42.5877 446.727L40.4881 446.727ZM40.4881 435.551L42.5877 435.551L42.5877 433.452L40.4881 433.452L40.4881 435.551ZM40.5576 474.51C45.1685 474.51 49.1041 473.203 52.148 470.466C55.1661 467.751 57.0974 463.819 58.0939 458.948L53.98 458.106C53.1022 462.398 51.4935 465.407 49.3401 467.343C47.2127 469.257 44.3457 470.31 40.5576 470.31L40.5576 474.51ZM58.0943 458.946L59.6908 451.102L55.5761 450.265L53.9796 458.108L58.0943 458.946ZM59.6906 451.103C60.0007 449.583 60.4149 448.904 60.7597 448.581C61.0488 448.311 61.5334 448.063 62.6313 448.063L62.6313 443.864C60.8831 443.864 59.2158 444.275 57.8911 445.515C56.622 446.702 55.9603 448.382 55.5763 450.264L59.6906 451.103ZM62.6313 448.063C63.4606 448.063 64.1481 448.42 64.7211 449.32C65.3453 450.301 65.8072 451.928 65.8072 454.223L70.0063 454.223C70.0063 451.451 69.4617 448.948 68.2637 447.066C67.0146 445.103 65.0643 443.864 62.6313 443.864L62.6313 448.063ZM65.8072 454.223C65.8072 456.475 65.3314 457.906 64.7173 458.725C64.1714 459.453 63.3712 459.898 62.0759 459.898L62.0759 464.097C64.529 464.097 66.6442 463.154 68.0766 461.245C69.4408 459.426 70.0063 456.97 70.0063 454.223L65.8072 454.223ZM59.9764 461.998L59.9764 473.174L64.1755 473.174L64.1755 461.998L59.9764 461.998ZM62.0759 475.273C67.4828 475.273 72.0439 473.17 75.2178 469.375C78.3596 465.619 80.0019 460.38 80.0019 454.293L75.8028 454.293C75.8028 459.659 74.3562 463.861 71.9969 466.681C69.6698 469.463 66.3177 471.074 62.0759 471.074L62.0759 475.273ZM80.0019 454.293C80.0019 448.025 78.2869 442.617 75.0454 438.735C71.7734 434.816 67.0768 432.619 61.5206 432.619L61.5206 436.818C65.8907 436.818 69.3849 438.507 71.8223 441.426C74.2901 444.381 75.8028 448.76 75.8028 454.293L80.0019 454.293ZM61.5206 432.619C57.0624 432.619 53.3687 433.832 50.5431 436.532C47.7685 439.183 46.0759 443.037 45.095 447.833L49.2088 448.675C50.1021 444.308 51.5331 441.394 53.444 439.568C55.3038 437.791 57.8574 436.818 61.5206 436.818L61.5206 432.619ZM45.096 447.828L43.4995 455.533L47.6112 456.385L49.2078 448.68L45.096 447.828ZM43.5013 455.524C43.1545 457.164 42.6994 457.989 42.2637 458.416C41.8972 458.775 41.3271 459.065 40.1411 459.065L40.1411 463.264C42.0787 463.264 43.834 462.756 45.2028 461.415C46.5025 460.141 47.1927 458.363 47.6095 456.393L43.5013 455.524ZM40.1411 459.065C39.1189 459.065 38.3767 458.663 37.8222 457.9C37.2167 457.067 36.7569 455.673 36.7569 453.668L32.5578 453.668C32.5578 456.244 33.1392 458.599 34.4253 460.369C35.7623 462.209 37.7619 463.264 40.1411 463.264L40.1411 459.065ZM36.7569 453.668C36.7569 451.898 37.2212 450.686 37.8311 449.955C38.405 449.267 39.2514 448.826 40.4881 448.826L40.4881 444.627C38.1154 444.627 36.0463 445.54 34.6072 447.264C33.2041 448.946 32.5578 451.204 32.5578 453.668L36.7569 453.668ZM42.5877 446.727L42.5877 435.551L38.3886 435.551L38.3886 446.727L42.5877 446.727ZM40.4881 433.452C35.0985 433.452 30.5408 435.395 27.3547 439.014C24.195 442.604 22.5622 447.637 22.5622 453.529L26.7612 453.529C26.7612 448.385 28.1826 444.429 30.5067 441.789C32.8043 439.178 36.1598 437.651 40.4881 437.651L40.4881 433.452ZM22.5622 453.529C22.5622 465.372 29.7717 474.51 40.5576 474.51L40.5576 470.31C32.7404 470.31 26.7612 463.761 26.7612 453.529L22.5622 453.529ZM36.0456 431.899L36.0456 433.999L38.1452 433.999L38.1452 431.899L36.0456 431.899ZM36.0456 417.322L36.0456 415.223L33.9461 415.223L33.9461 417.322L36.0456 417.322ZM77 417.322L77 419.422L79.0995 419.422L79.0995 417.322L77 417.322ZM77 406.077L79.0995 406.077L79.0995 403.978L77 403.978L77 406.077ZM36.0456 406.077L33.9461 406.077L33.9461 408.177L36.0456 408.177L36.0456 406.077ZM36.0456 391.5L38.1452 391.5L38.1452 389.401L36.0456 389.401L36.0456 391.5ZM25.6335 391.5L25.6335 389.401L23.534 389.401L23.534 391.5L25.6335 391.5ZM25.6335 431.899L23.534 431.899L23.534 433.999L25.6335 433.999L25.6335 431.899ZM38.1452 431.899L38.1452 417.322L33.9461 417.322L33.9461 431.899L38.1452 431.899ZM36.0456 419.422L77 419.422L77 415.223L36.0456 415.223L36.0456 419.422ZM79.0995 417.322L79.0995 406.077L74.9004 406.077L74.9004 417.322L79.0995 417.322ZM77 403.978L36.0456 403.978L36.0456 408.177L77 408.177L77 403.978ZM38.1452 406.077L38.1452 391.5L33.9461 391.5L33.9461 406.077L38.1452 406.077ZM36.0456 389.401L25.6335 389.401L25.6335 393.6L36.0456 393.6L36.0456 389.401ZM23.534 391.5L23.534 431.899L27.733 431.899L27.733 391.5L23.534 391.5ZM25.6335 433.999L36.0456 433.999L36.0456 429.8L25.6335 429.8L25.6335 433.999ZM51.2473 337.285C42.9407 337.285 35.7701 340.011 30.6605 344.864C25.5423 349.725 22.6316 356.591 22.6316 364.582L26.8307 364.582C26.8307 357.648 29.3342 351.915 33.5523 347.909C37.7788 343.894 43.8664 341.484 51.2473 341.484L51.2473 337.285ZM22.6316 364.582C22.6316 372.545 25.5645 379.393 30.6995 384.242C35.8252 389.083 43.0106 391.809 51.3167 391.809L51.3167 387.61C43.9353 387.61 37.8279 385.199 33.5827 381.19C29.3467 377.189 26.8307 371.473 26.8307 364.582L22.6316 364.582ZM51.3167 391.809C59.6194 391.809 66.7886 389.103 71.8991 384.277C77.0192 379.443 79.9325 372.611 79.9325 364.651L75.7334 364.651C75.7334 371.546 73.2323 377.243 69.0163 381.224C64.7906 385.214 58.7017 387.61 51.3167 387.61L51.3167 391.809ZM79.9325 364.651C79.9325 356.657 77.0021 349.775 71.869 344.899C66.7442 340.03 59.5575 337.285 51.2473 337.285L51.2473 341.484C58.6248 341.484 64.7308 343.909 68.9769 347.943C73.2148 351.969 75.7334 357.721 75.7334 364.651L79.9325 364.651ZM51.2473 353.354C55.7682 353.354 59.1792 354.517 61.422 356.395C63.6196 358.236 64.9048 360.934 64.9048 364.512L69.1039 364.512C69.1039 359.83 67.3696 355.899 64.1182 353.176C60.912 350.491 56.4444 349.155 51.2473 349.155L51.2473 353.354ZM64.9048 364.512C64.9048 368.146 63.6396 370.858 61.466 372.697C59.2472 374.574 55.844 375.74 51.2473 375.74L51.2473 379.939C56.5074 379.939 60.9828 378.606 64.1783 375.902C67.419 373.16 69.1039 369.208 69.1039 364.512L64.9048 364.512ZM51.2473 375.74C46.6886 375.74 43.303 374.576 41.092 372.699C38.9249 370.859 37.6593 368.146 37.6593 364.512L33.4602 364.512C33.4602 369.208 35.1447 373.158 38.3745 375.9C41.5604 378.605 46.0187 379.939 51.2473 379.939L51.2473 375.74ZM37.6593 364.512C37.6593 360.918 38.921 358.222 41.089 356.389C43.3012 354.518 46.6887 353.354 51.2473 353.354L51.2473 349.155C46.0186 349.155 41.5623 350.489 38.3775 353.182C35.1485 355.913 33.4602 359.846 33.4602 364.512L37.6593 364.512ZM77 320.304L79.0995 320.304L79.0995 318.205L77 318.205L77 320.304ZM59.0217 320.304L56.9222 320.304L56.9222 322.404L59.0217 322.404L59.0217 320.304ZM59.0217 311.627L58.1947 309.698L56.9222 310.243L56.9222 311.627L59.0217 311.627ZM77 303.922L77.827 305.852L79.0995 305.307L79.0995 303.922L77 303.922ZM77 291.636L79.0995 291.636L79.0995 288.412L76.1509 289.716L77 291.636ZM56.5922 300.66L54.7235 301.617L55.6276 303.382L57.4413 302.58L56.5922 300.66ZM25.6335 331.549L23.534 331.549L23.534 333.649L25.6335 333.649L25.6335 331.549ZM77 331.549L77 333.649L79.0995 333.649L79.0995 331.549L77 331.549ZM35.6291 320.304L33.5296 320.304L33.5296 322.404L35.6291 322.404L35.6291 320.304ZM49.1649 320.304L49.1649 322.404L51.2644 322.404L51.2644 320.304L49.1649 320.304ZM77 318.205L59.0217 318.205L59.0217 322.404L77 322.404L77 318.205ZM61.1212 320.304L61.1212 311.627L56.9222 311.627L56.9222 320.304L61.1212 320.304ZM59.8488 313.557L77.827 305.852L76.1729 301.993L58.1947 309.698L59.8488 313.557ZM79.0995 303.922L79.0995 291.636L74.9004 291.636L74.9004 303.922L79.0995 303.922ZM76.1509 289.716L55.7431 298.74L57.4413 302.58L77.849 293.556L76.1509 289.716ZM58.4609 299.703C56.8537 296.565 54.6932 294.111 51.9265 292.455C49.1636 290.801 45.9285 290.022 42.2929 290.022L42.2929 294.221C45.3211 294.221 47.7779 294.866 49.7699 296.058C51.7581 297.248 53.4153 299.063 54.7235 301.617L58.4609 299.703ZM42.2929 290.022C36.488 290.022 31.6903 291.978 28.3821 295.863C25.1164 299.698 23.534 305.141 23.534 311.697L27.733 311.697C27.733 305.758 29.1701 301.414 31.579 298.585C33.9454 295.806 37.4775 294.221 42.2929 294.221L42.2929 290.022ZM23.534 311.697L23.534 331.549L27.733 331.549L27.733 311.697L23.534 311.697ZM25.6335 333.649L77 333.649L77 329.45L25.6335 329.45L25.6335 333.649ZM79.0995 331.549L79.0995 320.304L74.9004 320.304L74.9004 331.549L79.0995 331.549ZM37.7287 320.304L37.7287 311.697L33.5296 311.697L33.5296 320.304L37.7287 320.304ZM37.7287 311.697C37.7287 309.495 38.2512 308.133 38.9337 307.345C39.574 306.606 40.5997 306.091 42.2929 306.091L42.2929 301.892C39.6825 301.892 37.3762 302.731 35.7605 304.595C34.1871 306.41 33.5296 308.901 33.5296 311.697L37.7287 311.697ZM42.2929 306.091C44.0027 306.091 45.0979 306.63 45.7945 307.42C46.5246 308.247 47.0654 309.633 47.0654 311.766L51.2644 311.766C51.2644 308.971 50.5557 306.469 48.9431 304.642C47.297 302.776 44.9562 301.892 42.2929 301.892L42.2929 306.091ZM47.0654 311.766L47.0654 320.304L51.2644 320.304L51.2644 311.766L47.0654 311.766ZM49.1649 318.205L35.6291 318.205L35.6291 322.404L49.1649 322.404L49.1649 318.205ZM57.4946 272.412L57.4946 270.313L56.9599 270.313L56.4904 270.568L57.4946 272.412ZM77 272.412L77 274.512L79.0995 274.512L79.0995 272.412L77 272.412ZM77 261.167L79.0995 261.167L79.0995 259.067L77 259.067L77 261.167ZM57.4946 261.167L56.4904 263.011L56.9599 263.267L57.4946 263.267L57.4946 261.167ZM25.6335 243.813L26.6377 241.97L23.534 240.279L23.534 243.813L25.6335 243.813ZM25.6335 256.03L23.534 256.03L23.534 257.306L24.6666 257.894L25.6335 256.03ZM42.2235 264.638L41.2566 266.501L41.2705 266.509L41.2845 266.516L42.2235 264.638ZM46.4577 266.651L47.2725 268.586L51.4796 266.814L47.3967 264.773L46.4577 266.651ZM42.2929 268.594L43.2566 270.46L43.2641 270.456L42.2929 268.594ZM25.6335 277.202L24.6698 275.336L23.534 275.923L23.534 277.202L25.6335 277.202ZM25.6335 289.766L23.534 289.766L23.534 293.3L26.6377 291.609L25.6335 289.766ZM57.4946 274.512L77 274.512L77 270.313L57.4946 270.313L57.4946 274.512ZM79.0995 272.412L79.0995 261.167L74.9004 261.167L74.9004 272.412L79.0995 272.412ZM77 259.067L57.4946 259.067L57.4946 263.267L77 263.267L77 259.067ZM58.4988 259.323L26.6377 241.97L24.6293 245.657L56.4904 263.011L58.4988 259.323ZM23.534 243.813L23.534 256.03L27.733 256.03L27.733 243.813L23.534 243.813ZM24.6666 257.894L41.2566 266.501L43.1904 262.774L26.6004 254.167L24.6666 257.894ZM41.2845 266.516C42.1481 266.947 42.9191 267.306 43.6155 267.628C44.3201 267.954 44.9291 268.234 45.5188 268.529L47.3967 264.773C46.737 264.443 46.0617 264.133 45.3781 263.817C44.6862 263.497 43.9648 263.161 43.1624 262.76L41.2845 266.516ZM45.643 264.716C44.2915 265.285 42.9859 265.865 41.3217 266.733L43.2641 270.456C44.793 269.658 45.9862 269.127 47.2725 268.586L45.643 264.716ZM41.3292 266.729L24.6698 275.336L26.5972 279.067L43.2566 270.46L41.3292 266.729ZM23.534 277.202L23.534 289.766L27.733 289.766L27.733 277.202L23.534 277.202ZM26.6377 291.609L58.4988 274.256L56.4904 270.568L24.6293 287.922L26.6377 291.609ZM51.2473 169.85C42.9407 169.85 35.7701 172.576 30.6605 177.43C25.5423 182.291 22.6316 189.156 22.6316 197.147L26.8307 197.147C26.8307 190.214 29.3342 184.481 33.5523 180.474C37.7788 176.46 43.8664 174.049 51.2473 174.049L51.2473 169.85ZM22.6316 197.147C22.6316 205.11 25.5645 211.958 30.6995 216.808C35.8252 221.649 43.0106 224.375 51.3167 224.375L51.3167 220.175C43.9352 220.175 37.8279 217.765 33.5827 213.755C29.3467 209.755 26.8307 204.039 26.8307 197.147L22.6316 197.147ZM51.3167 224.375C59.6194 224.375 66.7886 221.668 71.8991 216.843C77.0192 212.008 79.9325 205.176 79.9325 197.216L75.7334 197.216C75.7334 204.112 73.2323 209.809 69.0163 213.79C64.7906 217.78 58.7017 220.175 51.3167 220.175L51.3167 224.375ZM79.9325 197.216C79.9325 189.222 77.0021 182.341 71.869 177.464C66.7442 172.596 59.5574 169.85 51.2473 169.85L51.2473 174.049C58.6248 174.049 64.7308 176.475 68.9769 180.509C73.2148 184.535 75.7334 190.287 75.7334 197.216L79.9325 197.216ZM51.2473 185.919C55.7682 185.919 59.1791 187.082 61.4219 188.961C63.6196 190.801 64.9048 193.5 64.9048 197.078L69.1039 197.078C69.1039 192.396 67.3696 188.465 64.1182 185.741C60.912 183.056 56.4444 181.72 51.2473 181.72L51.2473 185.919ZM64.9048 197.078C64.9048 200.711 63.6396 203.423 61.4659 205.262C59.2472 207.14 55.844 208.306 51.2473 208.306L51.2473 212.505C56.5074 212.505 60.9828 211.172 64.1783 208.468C67.419 205.726 69.1039 201.774 69.1039 197.078L64.9048 197.078ZM51.2473 208.306C46.6886 208.306 43.303 207.141 41.092 205.264C38.9249 203.425 37.6593 200.712 37.6593 197.078L33.4602 197.078C33.4602 201.774 35.1447 205.724 38.3745 208.466C41.5604 211.17 46.0187 212.505 51.2473 212.505L51.2473 208.306ZM37.6593 197.078C37.6593 193.484 38.921 190.787 41.089 188.954C43.3012 187.083 46.6887 185.919 51.2473 185.919L51.2473 181.72C46.0185 181.72 41.5623 183.055 38.3775 185.748C35.1485 188.479 33.4602 192.411 33.4602 197.078L37.6593 197.078ZM56.9393 134.822L59.0388 134.822L59.0388 132.722L56.9393 132.722L56.9393 134.822ZM46.8048 134.822L46.8048 132.722L44.7053 132.722L44.7053 134.822L46.8048 134.822ZM46.8048 152.87L46.8048 154.969L48.9043 154.969L48.9043 152.87L46.8048 152.87ZM36.0456 152.87L33.9461 152.87L33.9461 154.969L36.0456 154.969L36.0456 152.87ZM36.0456 131.421L38.1452 131.421L38.1452 129.321L36.0456 129.321L36.0456 131.421ZM25.6335 131.421L25.6335 129.321L23.534 129.321L23.534 131.421L25.6335 131.421ZM25.6335 164.115L23.534 164.115L23.534 166.214L25.6335 166.214L25.6335 164.115ZM77 164.115L77 166.214L79.0995 166.214L79.0995 164.115L77 164.115ZM77 152.87L79.0995 152.87L79.0995 150.77L77 150.77L77 152.87ZM56.9393 152.87L54.8397 152.87L54.8397 154.969L56.9393 154.969L56.9393 152.87ZM56.9393 132.722L46.8048 132.722L46.8048 136.921L56.9393 136.921L56.9393 132.722ZM44.7053 134.822L44.7053 152.87L48.9043 152.87L48.9043 134.822L44.7053 134.822ZM46.8048 150.77L36.0456 150.77L36.0456 154.969L46.8048 154.969L46.8048 150.77ZM38.1452 152.87L38.1452 131.421L33.9461 131.421L33.9461 152.87L38.1452 152.87ZM36.0456 129.321L25.6335 129.321L25.6335 133.52L36.0456 133.52L36.0456 129.321ZM23.534 131.421L23.534 164.115L27.733 164.115L27.733 131.421L23.534 131.421ZM25.6335 166.214L77 166.214L77 162.015L25.6335 162.015L25.6335 166.214ZM79.0995 164.115L79.0995 152.87L74.9004 152.87L74.9004 164.115L79.0995 164.115ZM77 150.77L56.9393 150.77L56.9393 154.969L77 154.969L77 150.77ZM59.0388 152.87L59.0388 134.822L54.8397 134.822L54.8397 152.87L59.0388 152.87ZM77 94.4451L79.0995 94.4451L79.0995 92.3455L77 92.3455L77 94.4451ZM48.8872 95.1392L48.1326 93.18L49.2263 97.2112L48.8872 95.1392ZM77 84.3106L77.7546 86.2698L79.0995 85.7518L79.0995 84.3106L77 84.3106ZM77 74.0373L79.0995 74.0373L79.0995 72.5994L77.7588 72.0797L77 74.0373ZM48.8872 63.1393L49.1894 61.0616L48.1284 65.0969L48.8872 63.1393ZM77 63.6946L77 65.7941L79.0995 65.7941L79.0995 63.6946L77 63.6946ZM77 52.7966L79.0995 52.7966L79.0995 50.697L77 50.697L77 52.7966ZM25.6335 52.7966L25.6335 50.697L23.534 50.697L23.534 52.7966L25.6335 52.7966ZM25.6335 63.8334L23.534 63.8334L23.534 65.2544L24.8531 65.7826L25.6335 63.8334ZM63.9501 79.1739L64.7274 81.1243L69.6099 79.1784L64.7305 77.2249L63.9501 79.1739ZM25.6335 94.4451L24.8562 92.4947L23.534 93.0217L23.534 94.4451L25.6335 94.4451ZM25.6335 105.343L23.534 105.343L23.534 107.443L25.6335 107.443L25.6335 105.343ZM77 105.343L77 107.443L79.0995 107.443L79.0995 105.343L77 105.343ZM77 92.3455L62.6312 92.3455L62.6312 96.5446L77 96.5446L77 92.3455ZM62.6312 92.3455C57.0301 92.3455 52.5599 92.4108 48.5482 93.0673L49.2263 97.2112C52.8501 96.6182 56.9872 96.5446 62.6312 96.5446L62.6312 92.3455ZM49.6419 97.0984L77.7546 86.2698L76.2453 82.3514L48.1326 93.18L49.6419 97.0984ZM79.0995 84.3106L79.0995 74.0373L74.9004 74.0373L74.9004 84.3106L79.0995 84.3106ZM77.7588 72.0797L49.6461 61.1817L48.1284 65.0969L76.2411 75.9949L77.7588 72.0797ZM48.585 65.217C52.5881 65.7993 55.1951 65.7941 66.2408 65.7941L66.2408 61.5951C55.0739 61.5951 52.822 61.59 49.1894 61.0616L48.585 65.217ZM66.2408 65.7941L77 65.7941L77 61.5951L66.2408 61.5951L66.2408 65.7941ZM79.0995 63.6946L79.0995 52.7966L74.9004 52.7966L74.9004 63.6946L79.0995 63.6946ZM77 50.697L25.6335 50.697L25.6335 54.8961L77 54.8961L77 50.697ZM23.534 52.7966L23.534 63.8334L27.733 63.8334L27.733 52.7966L23.534 52.7966ZM24.8531 65.7826L63.1697 81.1231L64.7305 77.2249L26.4138 61.8843L24.8531 65.7826ZM63.1728 77.2236L24.8562 92.4947L26.4108 96.3954L64.7274 81.1243L63.1728 77.2236ZM23.534 94.4451L23.534 105.343L27.733 105.343L27.733 94.4451L23.534 94.4451ZM25.6335 107.443L77 107.443L77 103.244L25.6335 103.244L25.6335 107.443ZM79.0995 105.343L79.0995 94.4451L74.9004 94.4451L74.9004 105.343L79.0995 105.343ZM57.4946 29.3948L57.4946 27.2953L56.9599 27.2953L56.4903 27.551L57.4946 29.3948ZM77 29.3948L77 31.4944L79.0995 31.4944L79.0995 29.3948L77 29.3948ZM77 18.1497L79.0995 18.1497L79.0995 16.0502L77 16.0502L77 18.1497ZM57.4946 18.1497L56.4903 19.9935L56.9599 20.2493L57.4946 20.2493L57.4946 18.1497ZM25.6335 0.796202L26.6377 -1.04761L23.534 -2.7381L23.534 0.796203L25.6335 0.796202ZM25.6335 13.0131L23.534 13.0131L23.534 14.2891L24.6666 14.8767L25.6335 13.0131ZM42.2235 21.6204L41.2566 23.4841L41.2705 23.4913L41.2845 23.4984L42.2235 21.6204ZM46.4577 23.6334L47.2725 25.5685L51.4796 23.7971L47.3967 21.7556L46.4577 23.6334ZM42.2929 25.577L43.2566 27.4423L43.2641 27.4385L42.2929 25.577ZM25.6335 34.1844L24.6698 32.3191L23.534 32.9059L23.534 34.1844L25.6335 34.1844ZM25.6335 46.7484L23.534 46.7484L23.534 50.2827L26.6377 48.5922L25.6335 46.7484ZM57.4946 31.4944L77 31.4944L77 27.2953L57.4946 27.2953L57.4946 31.4944ZM79.0995 29.3948L79.0995 18.1497L74.9004 18.1497L74.9004 29.3948L79.0995 29.3948ZM77 16.0502L57.4946 16.0502L57.4946 20.2493L77 20.2493L77 16.0502ZM58.4988 16.306L26.6377 -1.04761L24.6292 2.63995L56.4903 19.9935L58.4988 16.306ZM23.534 0.796203L23.534 13.0131L27.733 13.0131L27.733 0.796202L23.534 0.796203ZM24.6666 14.8767L41.2566 23.4841L43.1904 19.7568L26.6004 11.1495L24.6666 14.8767ZM41.2845 23.4984C42.1481 23.9301 42.9191 24.2886 43.6154 24.6107C44.3201 24.9365 44.9291 25.2165 45.5188 25.5114L47.3967 21.7556C46.7369 21.4257 46.0617 21.1156 45.3781 20.7994C44.6862 20.4794 43.9648 20.1437 43.1624 19.7426L41.2845 23.4984ZM45.643 21.6984C44.2915 22.2675 42.9859 22.8473 41.3217 23.7156L43.2641 27.4385C44.793 26.6408 45.9862 26.11 47.2725 25.5685L45.643 21.6984ZM41.3292 23.7118L24.6698 32.3191L26.5972 36.0497L43.2566 27.4423L41.3292 23.7118ZM23.534 34.1844L23.534 46.7484L27.733 46.7484L27.733 34.1844L23.534 34.1844ZM26.6377 48.5922L58.4988 31.2386L56.4903 27.551L24.6293 44.9046L26.6377 48.5922Z" fill="white"/>
<path d="M155.129 912.992C177.003 912.992 190.562 900.699 195.443 876.835L199.601 856.407C201.409 847.548 205.206 844.114 212.618 844.114C221.114 844.114 226.357 852.43 226.357 865.627C226.357 878.643 220.934 885.874 211.171 885.874L211.171 914.98C236.3 914.98 252.39 895.637 252.39 865.808C252.39 835.074 235.577 814.827 209.725 814.827C188.574 814.827 177.184 826.216 172.303 850.079L168.145 870.146C166.156 879.547 162.179 883.705 154.044 883.705C145.186 883.705 139.762 876.112 139.762 864.18C139.762 853.153 145.547 846.102 154.948 846.102L154.948 816.996C129.638 816.996 113.729 835.074 113.729 863.819C113.729 892.563 130.904 912.992 155.129 912.992ZM199.782 786.376C231.781 786.376 252.209 764.863 252.209 731.418C252.209 697.793 231.6 676.099 199.782 676.099L116.26 676.099L116.26 705.385L197.793 705.385C214.245 705.385 223.826 714.786 223.826 731.418C223.826 747.869 214.606 757.089 197.793 757.089L116.26 757.089L116.26 786.376L199.782 786.376ZM252.209 581.385C252.209 547.941 232.504 522.993 202.675 518.292L202.675 548.664C215.872 552.279 224.007 564.392 224.007 580.843C224.007 602.356 208.279 615.734 183.15 615.734C157.66 615.734 142.293 602.537 142.293 580.843C142.293 564.753 149.886 553.364 163.264 549.387L163.264 518.473C133.254 522.631 114.091 546.675 114.091 580.12C114.091 620.073 141.57 646.648 183.331 646.648C225.634 646.648 252.209 621.519 252.209 581.385ZM252.209 430.912C252.209 397.467 232.504 372.519 202.675 367.819L202.675 398.19C215.872 401.806 224.007 413.918 224.007 430.37C224.007 451.883 208.279 465.261 183.15 465.261C157.66 465.261 142.293 452.064 142.293 430.37C142.293 414.28 149.886 402.891 163.264 398.913L163.264 368C133.254 372.158 114.091 396.202 114.091 429.647C114.091 469.6 141.57 496.175 183.331 496.175C225.634 496.175 252.209 471.046 252.209 430.912ZM250.04 253.321L222.922 253.321L222.922 309.002L195.262 309.002L195.262 259.649L169.591 259.649L169.591 309.002L143.378 309.002L143.378 253.321L116.26 253.321L116.26 338.289L250.04 338.289L250.04 253.321ZM155.129 226.83C177.003 226.83 190.562 214.536 195.443 190.673L199.601 170.245C201.409 161.386 205.206 157.951 212.618 157.951C221.114 157.951 226.357 166.267 226.357 179.464C226.357 192.481 220.934 199.712 211.171 199.712L211.171 228.818C236.3 228.818 252.39 209.474 252.39 179.645C252.39 148.912 235.577 128.664 209.725 128.664C188.574 128.664 177.184 140.054 172.303 163.917L168.145 183.984C166.156 193.385 162.179 197.543 154.044 197.543C145.186 197.543 139.762 189.95 139.762 178.018C139.762 166.99 145.547 159.94 154.948 159.94L154.948 130.834C129.638 130.834 113.729 148.912 113.729 177.657C113.729 206.401 130.904 226.83 155.129 226.83ZM155.129 104.957C177.003 104.957 190.562 92.6633 195.443 68.8L199.601 48.3715C201.409 39.5132 205.206 36.0783 212.618 36.0783C221.114 36.0783 226.357 44.3943 226.357 57.5915C226.357 70.6078 220.934 77.8391 211.171 77.8391L211.171 106.945C236.3 106.945 252.39 87.6014 252.39 57.7722C252.39 27.0392 235.577 6.79149 209.725 6.7915C188.573 6.7915 177.184 18.1808 172.303 42.0441L168.145 62.111C166.156 71.5117 162.179 75.6697 154.044 75.6697C145.186 75.6697 139.762 68.0769 139.762 56.1452C139.762 45.1174 145.547 38.0669 154.948 38.0669L154.948 8.96089C129.638 8.9609 113.729 27.0392 113.729 55.7836C113.729 84.5281 130.904 104.957 155.129 104.957Z" fill="white"/>
</svg>
